<?xml version="1.0" encoding="utf-8"?>
<!-- Generator: Adobe Illustrator 25.2.0, SVG Export Plug-In . SVG Version: 6.00 Build 0)  -->
<svg version="1.1" id="圖層_1" xmlns="http://www.w3.org/2000/svg" xmlns:xlink="http://www.w3.org/1999/xlink" x="0px" y="0px"
	 viewBox="0 0 1019 752" style="enable-background:new 0 0 1019 752;" xml:space="preserve">
<style type="text/css">
	.st0{fill:#316091;}
	.st1{fill:#ACD5F4;}
	.st2{fill:#86BBD8;}
	.st3{fill:#194866;}
	.st4{fill:#596273;}
	.st5{fill:#86C0F0;}
	.st6{fill:none;stroke:#3DC7C9;stroke-width:3.7304;stroke-miterlimit:10;}
	.st7{fill:none;stroke:#2C7EEA;stroke-width:3.7304;stroke-miterlimit:10;}
	.st8{fill:none;stroke:#F1FAFC;stroke-width:3.7304;stroke-miterlimit:10;}
	.st9{fill:none;stroke:#FFC4AD;stroke-width:3.7304;stroke-miterlimit:10;}
	.st10{fill:none;stroke:#7EC8EF;stroke-width:3.7304;stroke-miterlimit:10;}
	.st11{fill:#FFFFFF;}
	.st12{fill:#EFFAFF;}
	.st13{fill:#2C7EEA;}
	.st14{fill:#74B2E8;}
	.st15{fill:#D0DEE6;}
	.st16{fill:#88BDDA;}
	.st17{fill:#91E2F6;}
	.st18{fill:#001F46;}
	.st19{fill:#367082;}
	.st20{fill:#3DC7C9;}
	.st21{fill:#3D7AA8;}
	.st22{fill:#E6B09C;}
	.st23{fill:#163F59;}
	.st24{fill:#FFC4AD;}
	.st25{fill:#161711;}
	.st26{fill:#B6C2C9;}
	.st27{fill:#879BA6;}
	.st28{fill:#E4EEF3;}
	.st29{fill:#33A8B5;}
	.st30{fill:#B0BFDE;}
	.st31{fill:#282723;}
	.st32{fill:#D1DBEA;}
	.st33{fill:url(#SVGID_1_);}
	.st34{fill:#4E99FF;}
	.st35{fill:#2F4A60;}
	.st36{fill:none;stroke:#33A8B5;stroke-width:2.2818;stroke-miterlimit:10;}
	.st37{fill:none;stroke:#86C0F0;stroke-width:2.2818;stroke-miterlimit:10;}
	.st38{fill:none;stroke:#161711;stroke-width:1.7053;stroke-miterlimit:10;}
</style>
<g>
	<g>
		<rect x="3.6" y="69.8" class="st0" width="557.3" height="313.8"/>
		<g>
			<rect x="3.8" y="69.7" class="st1" width="557.3" height="8.1"/>
			<rect x="13.7" y="73.4" class="st2" width="13.4" height="0.8"/>
			<rect x="30.9" y="73.4" class="st2" width="13.4" height="0.8"/>
			<rect x="48.1" y="73.4" class="st2" width="13.4" height="0.8"/>
			<rect x="65.4" y="73.4" class="st2" width="13.4" height="0.8"/>
			<rect x="82.6" y="73.4" class="st2" width="13.4" height="0.8"/>
			<rect x="99.8" y="73.4" class="st2" width="13.4" height="0.8"/>
			<rect x="117" y="73.4" class="st2" width="13.4" height="0.8"/>
			<rect x="134.3" y="73.4" class="st2" width="13.4" height="0.8"/>
			<rect x="7.7" y="72.4" class="st2" width="2.5" height="2.8"/>
		</g>
		<g>
			<rect x="3.8" y="76.9" class="st0" width="557.3" height="9.7"/>
			<rect x="523.7" y="79.1" class="st3" width="35.4" height="6.1"/>
			<rect x="517.8" y="81.5" class="st4" width="1.4" height="1.3"/>
			<rect x="496.3" y="81.5" class="st3" width="18.6" height="1.3"/>
			<rect x="16.2" y="80.5" class="st5" width="2.5" height="2.8"/>
			<rect x="7.7" y="80.5" class="st5" width="2.5" height="2.8"/>
			<rect x="21.7" y="80.5" class="st5" width="2.5" height="2.8"/>
		</g>
	</g>
	<g>
		<line class="st6" x1="74.7" y1="94.9" x2="191.2" y2="94.9"/>
		<line class="st7" x1="84.3" y1="108.6" x2="103.6" y2="108.6"/>
		<line class="st7" x1="84.3" y1="122.3" x2="103.6" y2="122.3"/>
		<line class="st7" x1="84.3" y1="136.1" x2="103.6" y2="136.1"/>
		<line class="st6" x1="141.3" y1="108.6" x2="200.4" y2="108.6"/>
		<line class="st6" x1="141.3" y1="122.3" x2="200.4" y2="122.3"/>
		<line class="st6" x1="141.3" y1="136.1" x2="200.4" y2="136.1"/>
		<line class="st8" x1="111.9" y1="108.6" x2="125.5" y2="108.6"/>
		<line class="st8" x1="111.9" y1="122.3" x2="125.5" y2="122.3"/>
		<line class="st8" x1="111.9" y1="136.1" x2="125.5" y2="136.1"/>
		<line class="st9" x1="131.4" y1="108.6" x2="135" y2="108.6"/>
		<line class="st9" x1="131.4" y1="122.3" x2="135" y2="122.3"/>
		<line class="st9" x1="131.4" y1="136.1" x2="135" y2="136.1"/>
		<line class="st9" x1="75.1" y1="108.6" x2="78.8" y2="108.6"/>
		<line class="st9" x1="75.1" y1="122.3" x2="78.8" y2="122.3"/>
		<line class="st9" x1="75.1" y1="136.1" x2="78.8" y2="136.1"/>
		<line class="st7" x1="84.3" y1="163.5" x2="114.1" y2="163.5"/>
		<line class="st6" x1="155.3" y1="163.5" x2="200.4" y2="163.5"/>
		<line class="st8" x1="122.4" y1="163.5" x2="139.5" y2="163.5"/>
		<line class="st9" x1="145.4" y1="163.5" x2="149" y2="163.5"/>
		<line class="st6" x1="202.1" y1="191" x2="341.9" y2="191"/>
		<line class="st8" x1="124.2" y1="191" x2="191.2" y2="191"/>
		<line class="st6" x1="253" y1="163.5" x2="298.1" y2="163.5"/>
		<line class="st8" x1="213.1" y1="163.5" x2="237.2" y2="163.5"/>
		<line class="st9" x1="243" y1="163.5" x2="246.7" y2="163.5"/>
		<line class="st9" x1="302.6" y1="163.5" x2="306.2" y2="163.5"/>
		<line class="st9" x1="75.1" y1="163.5" x2="78.8" y2="163.5"/>
		<line class="st7" x1="84.3" y1="218.4" x2="114.1" y2="218.4"/>
		<line class="st8" x1="75.1" y1="218.4" x2="78.8" y2="218.4"/>
		<line class="st8" x1="119.8" y1="218.4" x2="123.4" y2="218.4"/>
		<line class="st7" x1="61.6" y1="273.3" x2="91.3" y2="273.3"/>
		<line class="st8" x1="52.4" y1="273.3" x2="56" y2="273.3"/>
		<line class="st8" x1="97" y1="273.3" x2="100.7" y2="273.3"/>
		<line class="st9" x1="100.1" y1="204.7" x2="103.7" y2="204.7"/>
		<line class="st7" x1="100.1" y1="177.2" x2="117.6" y2="177.2"/>
		<line class="st9" x1="124.2" y1="177.2" x2="192.5" y2="177.2"/>
		<line class="st6" x1="242" y1="108.6" x2="301.1" y2="108.6"/>
		<line class="st6" x1="242" y1="122.3" x2="301.1" y2="122.3"/>
		<line class="st6" x1="242" y1="136.1" x2="301.1" y2="136.1"/>
		<line class="st6" x1="304.2" y1="108.6" x2="407.6" y2="108.6"/>
		<line class="st6" x1="304.2" y1="122.3" x2="445.7" y2="122.3"/>
		<line class="st6" x1="304.2" y1="136.1" x2="471.1" y2="136.1"/>
		<line class="st8" x1="212.7" y1="108.6" x2="226.2" y2="108.6"/>
		<line class="st8" x1="212.7" y1="122.3" x2="226.2" y2="122.3"/>
		<line class="st8" x1="212.7" y1="136.1" x2="226.2" y2="136.1"/>
		<line class="st9" x1="232.1" y1="108.6" x2="235.7" y2="108.6"/>
		<line class="st9" x1="232.1" y1="122.3" x2="235.7" y2="122.3"/>
		<line class="st9" x1="232.1" y1="136.1" x2="235.7" y2="136.1"/>
		<line class="st9" x1="421.1" y1="108.6" x2="424.7" y2="108.6"/>
		<line class="st9" x1="455.9" y1="122.3" x2="459.5" y2="122.3"/>
		<line class="st9" x1="479.5" y1="136.1" x2="483.2" y2="136.1"/>
		<line class="st10" x1="74.7" y1="149.8" x2="191.2" y2="149.8"/>
		<line class="st7" x1="60.7" y1="302.5" x2="80" y2="302.5"/>
		<line class="st7" x1="105.8" y1="329.9" x2="125.1" y2="329.9"/>
		<line class="st6" x1="162.7" y1="329.9" x2="290.6" y2="329.9"/>
		<line class="st8" x1="76" y1="316.2" x2="263.5" y2="316.2"/>
		<line class="st8" x1="133.4" y1="329.9" x2="147" y2="329.9"/>
		<line class="st9" x1="152.8" y1="329.9" x2="156.4" y2="329.9"/>
		<line class="st9" x1="51.5" y1="302.5" x2="55.1" y2="302.5"/>
		<line class="st9" x1="84.3" y1="302.5" x2="88" y2="302.5"/>
		<line class="st7" x1="131.6" y1="343.7" x2="140.4" y2="343.7"/>
		<line class="st9" x1="122.4" y1="343.7" x2="126.1" y2="343.7"/>
		<line class="st9" x1="144.8" y1="343.7" x2="148.4" y2="343.7"/>
		<line class="st7" x1="156.2" y1="371.1" x2="164.9" y2="371.1"/>
		<line class="st9" x1="147" y1="371.1" x2="150.6" y2="371.1"/>
		<line class="st9" x1="169.3" y1="371.1" x2="172.9" y2="371.1"/>
		<line class="st9" x1="96.6" y1="329.9" x2="100.2" y2="329.9"/>
		<line class="st8" x1="147.4" y1="357.4" x2="437.3" y2="357.4"/>
		<line class="st9" x1="295" y1="329.9" x2="298.6" y2="329.9"/>
		<line class="st10" x1="74.7" y1="232.1" x2="235" y2="232.1"/>
		<line class="st10" x1="74.7" y1="245.9" x2="312.1" y2="245.9"/>
		<line class="st10" x1="74.7" y1="259.6" x2="155.3" y2="259.6"/>
		<line class="st9" x1="10.8" y1="94.9" x2="19.5" y2="94.9"/>
		<line class="st9" x1="10.8" y1="108.6" x2="19.5" y2="108.6"/>
		<line class="st9" x1="10.8" y1="122.3" x2="19.5" y2="122.3"/>
		<line class="st9" x1="10.8" y1="136.1" x2="19.5" y2="136.1"/>
		<line class="st9" x1="10.8" y1="149.8" x2="19.5" y2="149.8"/>
		<line class="st9" x1="10.8" y1="163.5" x2="19.5" y2="163.5"/>
		<line class="st9" x1="10.8" y1="177.2" x2="19.5" y2="177.2"/>
		<line class="st9" x1="10.8" y1="191" x2="19.5" y2="191"/>
		<line class="st9" x1="10.8" y1="204.7" x2="19.5" y2="204.7"/>
		<line class="st9" x1="10.8" y1="218.4" x2="19.5" y2="218.4"/>
		<line class="st9" x1="10.8" y1="232.1" x2="19.5" y2="232.1"/>
		<line class="st9" x1="10.8" y1="245.9" x2="19.5" y2="245.9"/>
		<line class="st9" x1="10.8" y1="259.6" x2="19.5" y2="259.6"/>
		<line class="st9" x1="10.8" y1="273.3" x2="19.5" y2="273.3"/>
		<line class="st9" x1="10.8" y1="287" x2="19.5" y2="287"/>
		<line class="st9" x1="10.8" y1="300.7" x2="19.5" y2="300.7"/>
		<line class="st9" x1="10.8" y1="314.5" x2="19.5" y2="314.5"/>
	</g>
</g>
<g>
	<g>
		<rect x="409" y="35.5" class="st11" width="530.6" height="262.4"/>
		<g>
			<rect x="420.7" y="73.2" class="st1" width="256.8" height="144"/>
		</g>
		<g>
			<rect x="420.7" y="218.2" class="st12" width="256.8" height="70.4"/>
		</g>
		<g>
			<rect x="682.8" y="73.2" class="st13" width="246.9" height="67.7"/>
		</g>
		<path class="st1" d="M934.3-0.4h-520c-2.9,0-5.3,2.2-5.3,5v31.1h530.6V4.6C939.6,1.8,937.2-0.4,934.3-0.4z"/>
		<g>
			<path class="st2" d="M420.3,9.3c0,1.8-1.4,3.2-3.2,3.2s-3.2-1.4-3.2-3.2c0-1.8,1.4-3.2,3.2-3.2S420.3,7.5,420.3,9.3z"/>
			<path class="st2" d="M429.7,9.3c0,1.8-1.4,3.2-3.2,3.2c-1.8,0-3.2-1.4-3.2-3.2c0-1.8,1.4-3.2,3.2-3.2
				C428.3,6.1,429.7,7.5,429.7,9.3z"/>
			<path class="st2" d="M439.2,9.3c0,1.8-1.4,3.2-3.2,3.2c-1.8,0-3.2-1.4-3.2-3.2c0-1.8,1.4-3.2,3.2-3.2
				C437.7,6.1,439.2,7.5,439.2,9.3z"/>
		</g>
		<rect x="452.8" y="17" class="st11" width="414.7" height="14"/>
		<g>
			<g>
				<polygon class="st2" points="418.2,28.4 413.2,23.4 418.2,18.3 420.1,20.2 417,23.4 420.1,26.6 				"/>
			</g>
			<g>
				<rect x="416.2" y="22.1" class="st2" width="9.3" height="2.7"/>
			</g>
		</g>
		<g>
			<g>
				<polygon class="st2" points="439.7,28.4 437.8,26.6 441,23.4 437.8,20.2 439.7,18.3 444.7,23.4 				"/>
			</g>
			<g>
				<rect x="432.4" y="22.1" class="st2" width="9.3" height="2.7"/>
			</g>
		</g>
		<rect x="872.9" y="17" class="st14" width="40.7" height="12.4"/>
		<g>
			<g>
				<rect x="474.1" y="51.9" class="st5" width="41.2" height="4.5"/>
			</g>
			<g>
				<rect x="521.3" y="51.9" class="st5" width="41.2" height="4.5"/>
			</g>
			<g>
				<rect x="568.6" y="51.9" class="st5" width="41.2" height="4.5"/>
			</g>
			<g>
				<rect x="615.9" y="51.9" class="st5" width="41.2" height="4.5"/>
			</g>
			<g>
				<rect x="663.1" y="51.9" class="st5" width="41.2" height="4.5"/>
			</g>
			<g>
				<rect x="861" y="44.4" class="st5" width="66.5" height="3.3"/>
			</g>
			<g>
				<rect x="875.1" y="52.4" class="st5" width="52.4" height="3.3"/>
			</g>
			<g>
				<rect x="420.7" y="48.2" class="st13" width="43.6" height="11.9"/>
			</g>
		</g>
		<g>
			<g>
				<g>
					<rect x="432.8" y="228" class="st13" width="92.9" height="4.6"/>
				</g>
				<g>
					<rect x="432.8" y="237.9" class="st5" width="225.5" height="3.5"/>
				</g>
				<g>
					<rect x="431.8" y="246" class="st5" width="196.9" height="3.5"/>
				</g>
				<g>
					<rect x="431" y="259.7" class="st13" width="45.2" height="12.4"/>
				</g>
				<g>
					<rect x="441.3" y="264.2" class="st11" width="24.8" height="3.5"/>
				</g>
			</g>
		</g>
		<g>
			<g>
				<rect x="692.9" y="86.9" class="st11" width="94.7" height="4.6"/>
			</g>
			<g>
				<rect x="692.9" y="96.8" class="st2" width="227.2" height="3.5"/>
			</g>
			<g>
				<rect x="692.9" y="104.9" class="st2" width="197.7" height="3.5"/>
			</g>
			<g>
				<rect x="692.9" y="118.6" class="st11" width="45.2" height="12.4"/>
			</g>
			<g>
				<rect x="703.1" y="123" class="st15" width="24.7" height="3.5"/>
			</g>
		</g>
		<g>
			<rect x="682.5" y="218.2" class="st12" width="120.8" height="70.4"/>
		</g>
		<g>
			<g>
				<rect x="694" y="228" class="st13" width="69.3" height="4.6"/>
			</g>
			<g>
				<rect x="694" y="237.9" class="st5" width="79.1" height="3.5"/>
			</g>
			<g>
				<rect x="693.7" y="246" class="st5" width="69" height="3.5"/>
			</g>
			<g>
				<rect x="692.9" y="259.7" class="st13" width="45.2" height="12.4"/>
			</g>
			<g>
				<rect x="703.1" y="264.2" class="st11" width="24.7" height="3.5"/>
			</g>
		</g>
		<g>
			<rect x="682.5" y="146.7" class="st14" width="120.8" height="70.5"/>
		</g>
		<g>
			<g>
				<rect x="809.1" y="218.2" class="st12" width="120.8" height="70.4"/>
			</g>
			<g>
				<g>
					<rect x="820.5" y="228" class="st13" width="69.3" height="4.6"/>
				</g>
				<g>
					<rect x="820.5" y="237.9" class="st5" width="79.1" height="3.5"/>
				</g>
				<g>
					<rect x="820.2" y="246" class="st5" width="69" height="3.5"/>
				</g>
				<g>
					<rect x="819.4" y="259.7" class="st13" width="45.2" height="12.4"/>
				</g>
				<g>
					<rect x="829.6" y="264.2" class="st11" width="24.7" height="3.5"/>
				</g>
			</g>
			<g>
				<rect x="809.1" y="146.7" class="st14" width="120.8" height="70.5"/>
			</g>
		</g>
	</g>
	<g>
		<path class="st11" d="M726,167v32.6h41V167H726z M764.1,196.8h-35.3v-26.9h35.3V196.8z"/>
		<path class="st11" d="M743,176.5c0,1.9-1.5,3.4-3.4,3.4c-1.9,0-3.4-1.5-3.4-3.4c0-1.9,1.5-3.4,3.4-3.4
			C741.5,173.2,743,174.7,743,176.5z"/>
		<polygon class="st11" points="762.4,184.2 754.3,178 743.6,186.8 735.9,183.7 730.6,186.1 730.6,195 762.4,195 		"/>
	</g>
	<g>
		<path class="st11" d="M852.1,167v32.6h41.1V167H852.1z M890.3,196.8H855v-26.9h35.3V196.8z"/>
		<path class="st11" d="M869.2,176.5c0,1.9-1.5,3.4-3.4,3.4c-1.9,0-3.4-1.5-3.4-3.4c0-1.9,1.5-3.4,3.4-3.4
			C867.7,173.2,869.2,174.7,869.2,176.5z"/>
		<polygon class="st11" points="888.6,184.2 880.5,178 869.8,186.8 862.1,183.7 856.7,186.1 856.7,195 888.6,195 		"/>
	</g>
	<g>
		<path class="st11" d="M566.3,149.8v-3.6c0-1.1-0.9-2-2-2h-28.9c-1.1,0-2,0.9-2,2v7.8v10.6c0,1.1,0.9,2,2,2h28.9c1.1,0,2-0.9,2-2
			V161l10.9,5.4v-8.3v-1.4v-1.4v-11L566.3,149.8z"/>
		<path class="st11" d="M541.3,143.4c3.8,0,6.9-3.1,6.9-6.9c0-3.8-3.1-6.9-6.9-6.9c-3.8,0-6.9,3.1-6.9,6.9
			C534.3,140.3,537.4,143.4,541.3,143.4z"/>
		<path class="st11" d="M556.1,143.4c3.8,0,6.9-3.1,6.9-6.9c0-3.8-3.1-6.9-6.9-6.9c-3.8,0-6.9,3.1-6.9,6.9
			C549.2,140.3,552.3,143.4,556.1,143.4z"/>
	</g>
</g>
<g>
	<g>
		<g>
			<g>
				<path class="st16" d="M380.2,617.7l-7.7,11.7l64.4,20.6c0,0,4.3-4.1-11.5-12.4C407,628,380.2,617.7,380.2,617.7z"/>
				<path class="st16" d="M368.7,617.7l7.7,11.7L312,650c0,0-4.3-4.1,11.5-12.4C341.9,628,368.7,617.7,368.7,617.7z"/>
			</g>
			<rect x="367.7" y="582.9" class="st16" width="13.5" height="47.9"/>
			<g>
				<path class="st17" d="M381.1,620.1l-6.6,11.2l55.2,19.7c0,0,3.7-3.9-9.8-11.8C404,630,381.1,620.1,381.1,620.1z"/>
				<path class="st17" d="M367.9,620.1l6.6,11.2L319.3,651c0,0-3.7-3.9,9.8-11.8C344.9,630,367.9,620.1,367.9,620.1z"/>
			</g>
			<path class="st18" d="M423.4,655.4c0,2.6,2.1,4.7,4.7,4.7c2.6,0,4.7-2.1,4.7-4.7c0-2.6-2.1-4.7-4.7-4.7
				C425.5,650.7,423.4,652.8,423.4,655.4z"/>
			<path class="st18" d="M316.5,655.4c0,2.6,2.1,4.7,4.7,4.7c2.6,0,4.7-2.1,4.7-4.7c0-2.6-2.1-4.7-4.7-4.7
				C318.6,650.7,316.5,652.8,316.5,655.4z"/>
			<path class="st19" d="M434.7,655.4c0,2.6,2.1,4.7,4.7,4.7c2.6,0,4.7-2.1,4.7-4.7c0-2.6-2.1-4.7-4.7-4.7
				C436.8,650.7,434.7,652.8,434.7,655.4z"/>
			<path class="st19" d="M305.2,655.4c0,2.6,2.1,4.7,4.7,4.7c2.6,0,4.7-2.1,4.7-4.7c0-2.6-2.1-4.7-4.7-4.7
				C307.3,650.7,305.2,652.8,305.2,655.4z"/>
		</g>
		<rect x="369.7" y="565.3" class="st19" width="9.8" height="17.2"/>
		<path class="st19" d="M362.3,556.2c0,5.3,4.3,9.6,9.6,9.6h5.4c5.3,0,9.6-4.3,9.6-9.6l0,0c0-5.3-4.3-9.6-9.6-9.6h-5.4
			C366.6,546.6,362.3,550.9,362.3,556.2L362.3,556.2z"/>
		<path class="st20" d="M301.4,547.4c-0.2-1.1-0.4-8.2-0.4-9.4c0-7.8,5-14,11.2-14H437c6.2,0,11.2,6.3,11.2,14
			c0,1.2-0.1,8.3-0.4,9.4H301.4z"/>
		<path class="st19" d="M449.4,551.2c0,2.4-1.4,4.3-3.1,4.3H303c-1.7,0-3.1-1.9-3.1-4.3l0,0c0-2.4,1.4-4.3,3.1-4.3h143.2
			C448,546.9,449.4,548.8,449.4,551.2L449.4,551.2z"/>
	</g>
	<g>
		<path class="st21" d="M350.6,523.5c0,0,80.2,0.2,111.2,0.6c21.4,0.3,23.4-30.2,14.9-34.8c-25.7-14-105.7-21.1-105.7-21.1l-54.4,50
			C316.6,518.2,319.6,518.2,350.6,523.5z"/>
		<path class="st14" d="M426.2,359.8c0,0,20.6-5.8,29.6,21.2c13.8,41.3,12.6,79.2,10.6,87.3c-0.9,3.7-3.5,16.6-26.6,17.1
			c-9.3,0.2-5.6-19.8-5.6-19.8s-6-17-12.4-45.8C415.5,391,426.2,359.8,426.2,359.8z"/>
		<path class="st5" d="M442.6,362.2l-52.9-17.1l-40-2.7l-43.9,13.3c0,0-14.4,9.9-1,41.7c13.3,31.8,8.2,81.6,8.2,81.6l113.2,3.6
			c0,0,2.1-46.1,9.6-92.1C437.4,380.2,437.6,368.1,442.6,362.2z"/>
		<path class="st14" d="M364.9,480.4h5.8c6-44.5,5.7-90.4-0.9-134.7c-1.7,1-3.5,2.1-5.2,3.1C366,394.1,363.5,439.5,364.9,480.4z"/>
		<g>
			<path class="st22" d="M387.4,357.5c-0.8,6.1-5.8,11.4-11,11.7c-5,0-10,0-15,0c-5.3-0.2-10.3-5.5-11-11.7
				c-1.2-10.1-2.4-20.2-3.7-30.3c-0.8-6,2.8-18.2,10.7-21.8c7.3-3.2,15.6-3.2,22.9,0c8,3.6,11.6,15.7,10.7,21.8
				C389.9,337.4,388.6,347.4,387.4,357.5z"/>
		</g>
		<polygon class="st14" points="368.3,370 358.8,385.5 341.4,363.8 344.2,352.3 349.8,347.7 349.9,356.3 		"/>
		<polygon class="st14" points="369.5,370 378.9,385.5 395.1,365.3 392.5,352.8 388.4,347.6 386.8,357.8 		"/>
		<g>
			<path class="st23" d="M366.6,286.3c-4.2,0-7.9,2.2-10,5.4h-4.1c-5.1,0-9.3,4.1-9.3,9.3v22.9h6.5v-9.3c0-3.6,2.9-6.5,6.5-6.5h3.8
				h-6h4c6.6,0,12-5.4,12-12v-9.8H366.6z"/>
			<path class="st22" d="M355.1,332.4c0,3.1-2.5,5.7-5.7,5.7h-0.5c-3.1,0-5.7-2.5-5.7-5.7v-6.9c0-3.1,2.5-5.7,5.7-5.7h0.5
				c2.3,0,4.3,1.4,5.2,3.4"/>
			<path class="st23" d="M361.6,295.4v-9.1h3.8h9.9h6c6.6,0,12,5.4,12,12v9.1h-3.8h-9.9h-6C366.9,307.4,361.6,302,361.6,295.4z"/>
			<path class="st24" d="M391.5,341.1c0,4.8-3.7,12.8-9.7,15.4c-8.2,3.4-17.9,3.4-26.1,0c-6-2.5-9.7-10.6-9.7-15.4
				c0-13.5,0-27,0-40.5c0-4.8,4.7-8.8,10.6-8.9c8.1,0,16.1,0,24.1,0c5.9,0.1,10.7,4.1,10.6,8.9C391.5,314.1,391.5,327.6,391.5,341.1
				z"/>
			<path class="st23" d="M373.4,286.3c4.2,0,7.9,2.2,10,5.4h4.1c5.1,0,9.3,4.1,9.3,9.3v22.9h-6.5v-9.3c0-3.6-2.9-6.5-6.5-6.5h-0.1
				h2.3h-10.6c-6.6,0-12-5.4-12-12v-9.8H373.4z"/>
			<path class="st24" d="M385.1,325.5c0-3.1,2.5-5.7,5.7-5.7h0.5c3.1,0,5.7,2.5,5.7,5.7v6.9c0,3.1-2.5,5.7-5.7,5.7h-0.5
				c-2.3,0-4.3-1.4-5.2-3.4"/>
			<path class="st23" d="M363.5,297.7c0.2-0.8,0.2-1.6,0.2-2.4v-9.1h-3.8h-4.7c-6.6,0-12,5.4-12,12v9.1h2.5h1.3h4.7
				c0.8,0,1.7-0.1,2.5-0.3C355.1,302.4,358.8,298.7,363.5,297.7z"/>
		</g>
		<path class="st25" d="M258.4,676.9c-1.2,1.5-0.3,5.4-0.3,5.4s21.6,2.4,28.5,0.8c1.8-0.4,4.9-2,7.7-3.6c0.5-0.3,1.3-1.9,1.8-2.2
			c0.9-0.5,1.3,0.3,2.1-0.1c1.9-1.2,3.3-2.2,3.3-2.3c1.9-9.9-0.6-13.9-0.6-13.9s-18.4-6.1-21.8-1.9
			C271,669.2,261.1,673.7,258.4,676.9z"/>
		<path class="st25" d="M460.2,666.2l1.5,16.3l16.3,1.6c0,0,1.1-2.2,2.5-2c1.2,0.1,2.4,2.5,4,2.7c3.4,0.3,7.2,0.7,8.8,0.9
			c3.1,0.3,32.8,3.2,32.8,3.2s1.1-3.3,0.3-4.5c-0.4-0.6-3-1.9-4.8-2.6c-8.2-3.2-31.6-13-35-21.4
			C482.5,649.9,460.2,666.2,460.2,666.2z"/>
		<g>
			<path class="st24" d="M435.5,459.6l-55.2,22.6c0,0,39.2,5.6,63.7,0.6C460.5,479.4,436.3,458.9,435.5,459.6z"/>
		</g>
		<path class="st21" d="M310.2,494c0,0-5.3,50.4-4.6,77.1c0.6,20.1,0.6,58.6-4.2,91.5c-0.3,2-26,0.5-26,0.5s-9.2-125-11.9-145.6
			C260.8,496.9,268.8,482,310.2,494z"/>
		<path class="st0" d="M471.8,506.2c0,0-8.3,13.1-31,16.2c-8.2,1.1,13.2,146.3,13.2,146.3l33.5-10.7l-6.5-160.6L471.8,506.2z"/>
		<path class="st0" d="M379.2,522.3c0,0-43.8,6.3-73.1,9.3c-10.7,1.1-20-28.9-21.3-30.2c-7.8-8.2-15.6-7.2-15.3-7.5
			c6.3-6.9,39.2-13.2,73.5-21.3c34.3-8,39.5-3,39.5-3L379.2,522.3z"/>
		<path class="st21" d="M343,472.7c-34.3,8.1-67.2,14.4-73.5,21.3c-0.3,0.3,7.5-0.7,15.3,7.5c0.3,0.4,2.3,10,3.7,13.4
			c-5.6-10.1,75.1-38.5,92.5-45.9C377.8,468,368.3,466.8,343,472.7z"/>
		<polygon class="st0" points="305.3,521.9 302,620.1 298.6,642.8 298.3,620.1 299,605.9 291.2,583.9 287.1,532.8 293,535 
			292.3,512.6 		"/>
		<path class="st21" d="M470.6,494l8.2,2.2l3,117.9l-17.2,42.2l8.2-28.7l-3.4-59.3c0,0-11.9,28.7-11.9,27.2
			c0-1.5,10.1-62.3,10.1-62.3s-11.2,9.3-10.1,9C458.7,541.7,464.3,499.6,470.6,494z"/>
		<path class="st5" d="M330,356.1c0,0-17.6-13.8-34.9,11.8c-25.3,37.6-36.2,77.5-40.3,89.1c-3.1,8.9-1.4,33.9,9,44.3
			c2.5,2.5,17.4,0.5,17.4,0.5l9.8-6.8l-4.1-7.9l-0.2-6.2c0,0,12.5-30.2,27.9-58.8C330,393.6,330,356.1,330,356.1z"/>
		<g>
			<path class="st24" d="M286.9,471l57.2,3c0,0-55.1,25.3-56.9,20.9C276.9,470.2,286.9,471,286.9,471z"/>
			<g>
				<path class="st24" d="M318.4,469.2c3.3-1.6,3-1.6,3-1.6s3.1,3.6,7.5,4.3c2.2,0.3,9.3,0.4,9.3,0.4l10.5,0.3l4.9-0.3
					c0,0,2.8-0.4,3.5,0.1c2.1,1.4,0.3,2.5,0.3,2.5l-18.9,2.7l18.1,2.2c0,0,2.3,0.7,2.4,1.9c0.1,1.2-0.7,1.1-0.7,1.1l-21.1,2.3
					l9.2,2.2c0,0,2.2,0.7,2.4,1.9c0.2,1.3,0.3,1.7,0.3,1.7l-19.4-1.9C329.9,489,315,470.8,318.4,469.2z"/>
				<path class="st24" d="M339.3,480.9l12.7,2.3c0,0,2.9,0.2,4.2,1.1c1.5,1.1,0.6,2.4,0.6,2.4l-19.5-1.6L339.3,480.9z"/>
			</g>
		</g>
		<g>
			<path class="st26" d="M418.9,490.9c0,0,0-0.1,0.1-0.1l-0.1-3.6H306.1v3.6c0,0,0,0.1,0,0.1l0.4,0.7c1.9,3.1,5.4,3.7,9.3,3.7h93.4
				c3.9,0,7.4-0.6,9.3-3.7L418.9,490.9z"/>
			<g>
				<rect x="325.2" y="488" class="st27" width="74.7" height="2.5"/>
			</g>
			<g>
				<path class="st28" d="M418.8,487.5l0.3-73.9c0-2-1.6-3.5-3.5-3.5H310.1c-1.9,0-3.5,1.6-3.5,3.5l-0.3,73.9H418.8z"/>
				<path class="st26" d="M369.5,448.8c0,3.8-3.1,6.8-6.9,6.8c-3.8,0-6.8-3.1-6.8-6.8c0-3.8,3.1-6.8,6.9-6.8
					C366.5,442,369.5,445,369.5,448.8z"/>
			</g>
		</g>
		<polygon class="st14" points="279.5,499.6 275.6,474.5 282.1,467.8 296.5,470.1 293.6,497.8 		"/>
		<polygon class="st5" points="454.9,481.6 456.4,472.3 438.2,455.9 428.3,460.4 441.2,485.1 		"/>
	</g>
	<g>
		<g>
			<path class="st19" d="M776.1,616c3.4,0,8.9-0.8,13.6-4.9c6.8-6,9.8-16.6,8.8-31.5c-0.7-10.1-4.6-20.3-8.8-31.1
				c-7.1-18.2-15.1-38.8-10.9-66l-7.8-1.2c-4.5,29.3,4.3,51.9,11.3,70.1c4.2,10.7,7.7,19.9,8.3,28.8c0.8,12.1-1.3,20.7-6.1,25
				c-4.5,4-10.2,3-10.4,2.9l-1.6,7.7C772.8,615.7,774.1,616,776.1,616z"/>
		</g>
		<g>
			<g>
				<path class="st16" d="M715.7,678.5l-7.7,11.7l64.4,20.6c0,0,4.3-4.1-11.5-12.4C742.5,688.8,715.7,678.5,715.7,678.5z"/>
				<path class="st16" d="M704.3,678.5l7.7,11.7l-64.4,20.6c0,0-4.3-4.1,11.5-12.4C677.4,688.8,704.3,678.5,704.3,678.5z"/>
			</g>
			<rect x="703.2" y="643.7" class="st16" width="13.5" height="47.9"/>
			<g>
				<path class="st17" d="M716.6,680.9l-6.6,11.2l55.2,19.7c0,0,3.7-3.9-9.8-11.8C739.5,690.8,716.6,680.9,716.6,680.9z"/>
				<path class="st17" d="M703.4,680.9l6.6,11.2l-55.2,19.7c0,0-3.7-3.9,9.8-11.8C680.4,690.8,703.4,680.9,703.4,680.9z"/>
			</g>
			<path class="st18" d="M758.9,716.2c0,2.6,2.1,4.7,4.7,4.7c2.6,0,4.7-2.1,4.7-4.7c0-2.6-2.1-4.7-4.7-4.7
				C761,711.6,758.9,713.7,758.9,716.2z"/>
			<path class="st18" d="M652,716.2c0,2.6,2.1,4.7,4.7,4.7c2.6,0,4.7-2.1,4.7-4.7c0-2.6-2.1-4.7-4.7-4.7
				C654.1,711.6,652,713.7,652,716.2z"/>
			<path class="st19" d="M770.2,716.2c0,2.6,2.1,4.7,4.7,4.7c2.6,0,4.7-2.1,4.7-4.7c0-2.6-2.1-4.7-4.7-4.7
				C772.3,711.6,770.2,713.7,770.2,716.2z"/>
			<path class="st19" d="M640.7,716.2c0,2.6,2.1,4.7,4.7,4.7c2.6,0,4.7-2.1,4.7-4.7c0-2.6-2.1-4.7-4.7-4.7
				C642.8,711.6,640.7,713.7,640.7,716.2z"/>
		</g>
		<rect x="705.2" y="626.1" class="st19" width="9.8" height="17.2"/>
		<path class="st19" d="M697.8,617c0,5.3,4.3,9.6,9.6,9.6h5.4c5.3,0,9.6-4.3,9.6-9.6l0,0c0-5.3-4.3-9.6-9.6-9.6h-5.4
			C702.1,607.4,697.8,611.7,697.8,617L697.8,617z"/>
		<path class="st20" d="M637,608.2c-0.2-1.1-0.4-8.2-0.4-9.4c0-7.8,5-14,11.2-14h124.7c6.2,0,11.2,6.3,11.2,14
			c0,1.2-0.1,8.3-0.4,9.4H637z"/>
		<path class="st19" d="M784.9,612c0,2.4-1.4,4.3-3.1,4.3H638.5c-1.7,0-3.1-1.9-3.1-4.3l0,0c0-2.4,1.4-4.3,3.1-4.3h143.2
			C783.5,607.7,784.9,609.7,784.9,612L784.9,612z"/>
		<g>
			<path class="st20" d="M777.9,536.2c-3.1,0.2-22.6,0.6-26,0.6c-21.4,0.3-39.8-3.8-40.9-9c-4.2-21.9-4.4-44.4-0.6-66.3
				c0.9-5.3,19.6-9.3,41.5-9c3.4,0,23.4,0.4,26.5,0.6C771.8,480.4,771.6,508.9,777.9,536.2z"/>
			<path class="st19" d="M780.8,453.1c2.4,0,4.1,1.2,3.7,2.5c-6,25.7-6.2,52.3-0.7,78c0.3,1.4-1.4,2.5-3.7,2.5l0,0
				c-2.3,0-4.5-1.1-4.8-2.4c-5.6-25.8-5.4-52.5,0.5-78.2C776.2,454.2,778.4,453.1,780.8,453.1L780.8,453.1z"/>
			<path class="st29" d="M781.8,536.2c-0.6,0.2-4.9,0.4-5.6,0.4c-4.7,0.1-9.5-4.1-10.4-9.2c-3.9-21.6-3.8-43.7,0.3-65.3
				c1-5.2,5.9-9.3,10.6-9.2c0.8,0,5.1,0.2,5.7,0.4C775.7,480.4,775.5,508.9,781.8,536.2z"/>
		</g>
	</g>
	<g>
		<g>
			<g>
				<g>
					<path class="st22" d="M652,473.7c0,0-0.1,5.4-26.6,5.5c-26.4,0-65.3-6.5-65.3-6.5l61-5.8C621.1,467,644.5,465.9,652,473.7z"/>
					<path class="st22" d="M580.9,474.7c-12.6,0.4-17.8,6.9-22.7,9c-4.9,2.1-9.8,5.3-9.8,5.2c2.6-5.5,6.7-5.7,8.7-7.6
						c2-1.8,1.5-0.9-3-1.1c-2.5-0.1-6.9,4.5-10,7.1c-2.7,2.2-4.5,2.5-4.5,2.5s3.1-4.6,7.1-8.4c4.9-4.6,10.9-8.4,12.4-9.1
						c2.7-1.1,11.1-1.7,17.1-1.1C583,471.9,590,474.4,580.9,474.7z"/>
					<path class="st22" d="M559.8,472.5c0,0-9.5,2.8-11.2,4.1c-1.2,0.9-5.9,6.2-5.9,6.2s3.6-0.7,5.6-2.7
						C550.3,478.1,559.8,472.5,559.8,472.5z"/>
				</g>
				<path class="st30" d="M640,462.7c0,0,24.4,0.7,23.2,15.2c-0.7,8.2-6.1,11.3-13.5,10.9c-13.7-0.6-29.2-2.1-29.2-2.1l-7.7-22.2
					L640,462.7z"/>
			</g>
			<path class="st30" d="M645.2,464.5l21.3-75.1c0,0,3.1-11,9-9.2c8.5,2.7,4.6,11.7,4.1,17c-1.1,10.8,0,15.5-6.8,41.7
				c-4.2,16.2-7.7,34.7-11.4,45.4c-2.6,7.3-7.8-2.9-15.3-5.5C632.1,473.8,645.2,464.5,645.2,464.5z"/>
		</g>
		<path class="st31" d="M686.4,365.1c3.7,16.3,20.2,26.6,36.9,22.8c16.7-3.7,27.3-20,23.6-36.4c-3.7-16.3-20.2-26.6-36.9-22.8
			C693.3,332.5,682.8,348.8,686.4,365.1z"/>
		<path class="st31" d="M657.9,348.4c2.8,12.6,15.3,20.4,27.8,17.6l3.3-12.1c12.6-2.8,20.4-15.3,17.6-27.8l-1.9-8.5
			c-2.8-12.6-15.3-20.4-27.8-17.6l-5.7,1.3c-12.5,2.8-20.4,15.3-17.6,27.8L657.9,348.4z"/>
		<path class="st24" d="M659.5,312.9c0.5,2.1,1.2,4.2,2,6.3c5.6,14.1,16.9,23.2,26.9,22.4c1.8,6.5,4.4,12.2,7.2,16.9
			c3.1,5.4,11.2,9.9,11.2,9.9c3.9,9.8-35.4,42.7-37.1,41.9c-3.6-1.8,2.8-25.5,9.3-32.8c3-3.4,6.1-7.5,6.2-9.8
			c0.2-8.1-2.3-9.8-6.3-13.6c-6.8-5.2-14.7-3.3-14.7-3.3c-0.8,0.2-1.5,0-2.1-0.4c-0.8-1.4-1.4-2.9-1.8-4.6l-4.2-18.7
			C654.9,321.9,656.4,316.7,659.5,312.9z"/>
		<path class="st13" d="M700.3,521.9c0,0-10.1,9.1-12.9,9.9c-3.8,1.1-14.4-3.5-14.4-3.5s2.9-47.3,1.8-66.1c-1.1-18.8-5.5-24.2-5-30
			c0.8-9.3-6.7-14-4.5-21c2.2-7.1,7.8-32.4,8.2-28.9c3.3,30,14.8,6.9,17.1,3.2C691.9,383.7,700.3,521.9,700.3,521.9z"/>
		<path class="st32" d="M679.2,374.4c0,0-13.3,9.8-13.2,14.3c0.2,4.5-6.9,17.9-4,37.9c3.3,22.9,4.5,38.3,3.8,52.9
			c-0.7,14.6-7.4,27.3-7.6,45.3c-0.2,14.1,3,15.3,3,15.3s6.2,2.3,11.4-2.5c5.2-4.8,4.3-53,3.5-65.2c-0.8-12.1-4.6-40.7-5.5-49.1
			c-1.1-10.4,0.6-20.5,1.1-23.4c1.9-10.3,4.1-16.6,5.6-20.3c0.3-0.6,3.7-3.4,3.9-3.9C682.4,373.4,680.3,373.1,679.2,374.4z"/>
		<path class="st30" d="M682.8,369.5c0,0,2.8-0.6,0.4,2.6c-1.3,1.7-1.4,3.3-1.4,3.3s-1.2-1.3-3,0.5c-1.6,1.6-4.2,3.7-4.2,3.7
			s1.7-4.7,2-5C678,373.3,682.8,369.5,682.8,369.5z"/>
		<path class="st31" d="M695.3,406.3c3.8,17.1,21.1,27.7,38.5,23.8c17.4-3.9,28.5-20.9,24.6-38c-3.8-17.1-21.1-27.7-38.5-23.8
			C702.5,372.3,691.4,389.3,695.3,406.3z"/>
		<polygon class="st24" points="628.7,683.8 634.8,730.2 608.6,742.2 594.1,745.3 619.8,726 611.4,684.2 		"/>
		<path class="st25" d="M636.5,737.2l-5.7,1.5l-3.8-3.4l-20.9,10.1l-18.5,4.2c0,0-0.2-1.5,0.4-2.2c2.3-2.9,15.3-9.5,15.3-9.5
			s0.2,4.3,2.1,4.4c1.8,0.1,17.8-8,21.5-10.3c6.4-3.9,7.6-6.3,8.1-6C636.2,726.9,636.5,737.2,636.5,737.2z"/>
		<polygon class="st24" points="565.6,619.3 544.8,658.8 516.1,657.4 501.8,653.4 533.5,648.3 550.9,614.5 		"/>
		<path class="st25" d="M543.1,665.8l-5.7-1.3l-1.8-4.8l-25.8-0.4l-15.4-3.5c0,0,1.9-2,3-2.5c3.4-1.4,15.6-2.1,15.6-2.1
			s-1.3,3.4,0.3,4.3c1.6,1,19.3,1.5,23.6,1.2c7.5-0.5,9.6-2.1,9.9-1.6C547.7,656.5,543.1,665.8,543.1,665.8z"/>
		<path class="st3" d="M717.4,501.1l-15.5,6.7l-6.7,20.2l-99.7-16.4c0,0-10.2-3.1-16.6,12.9c-9.2,22.8-32.6,93.8-32.6,93.8
			l14.8,15.5l46.5-80.2c0,0,95.3,44.7,126.7,35c12.1-3.7,21.3-25,19.5-46.5c-1.3-16.8-4.7-32.3-4.7-32.3L717.4,501.1z"/>
		<path class="st23" d="M703.9,588.1l-76.3-5.5l6.6,117.7l-22.5,0.7l-16.6-137.8c0,0,4.5-20.5,19-17.4
			C628.7,548.9,663.9,575.9,703.9,588.1z"/>
		<path class="st32" d="M694.3,530.9c0,0-1.8-47.9-3.2-70.6c-1.4-22.7-1.1-66.5-1.4-72c-0.3-5.5,1.2-13.2,1.2-13.2
			s6.9-11.8,14.6-10.7c6.8,0.9,17.2,10.3,23.7,14.7c6.4,4.3,5.7,84.3,6,88.3c1.2,14.5,9.8,28.9,16.4,42.9c4.2,9,5.2,23.1,5.2,23.1
			S717.8,526,694.3,530.9z"/>
		<polygon class="st30" points="703,360.7 697.5,366.1 689.8,374.4 693.7,383.7 707.3,364.6 		"/>
		<g>
			<path class="st24" d="M713.5,485.8c0,0-0.8,5.8-32.2,2.4c-31.3-3.5-76.6-15.6-76.6-15.6l73,1.8
				C677.7,474.5,705.6,476.4,713.5,485.8z"/>
			<path class="st24" d="M629.1,477.5c-15-1.2-21.9,5.1-28,6.7c-6.1,1.6-12.3,4.4-12.2,4.3c3.8-5.5,8.6-5.3,11.2-7
				c2.6-1.7,1.9-0.8-3.4-1.6c-3-0.5-8.7,4-12.7,6.3c-3.5,2.1-5.6,2.1-5.6,2.1s4.2-4.6,9.5-8.1c6.3-4.3,14-7.7,15.8-8.1
				c3.3-0.9,13.3-0.4,20.4,1.1C631.9,474.7,639.9,478.3,629.1,477.5z"/>
			<path class="st24" d="M604.3,472.3c0,0-11.6,1.7-13.7,2.9c-1.5,0.8-7.7,5.9-7.7,5.9s4.3-0.3,7-2.2
				C592.4,477.1,604.3,472.3,604.3,472.3z"/>
		</g>
		<path class="st30" d="M700.6,472.3l3.5-74.1c0,0,4-15.5,9.8-19.1c6.9-4.2,16.4,3.6,16.4,3.6s4.9,11.6,1.6,66.2
			c-2.2,36.5-5.5,55.4-22.9,52.8c-16.2-2.5-34.4-6.1-34.4-6.1l-6.5-24.9L700.6,472.3z"/>
	</g>
	<g>
		<path class="st15" d="M638.3,490.7c0,0,0-0.1,0.1-0.1l-0.1-3.7H486.1v3.7c0,0,0,0.1,0,0.1l0.4,0.7c2,3.2,5.5,3.8,9.5,3.8h132.4
			c4,0,7.5-0.6,9.5-3.8L638.3,490.7z"/>
		<path class="st26" d="M601.6,491.3c0,0,0,0.1,0,0.1l0.4,0.6c0.6,0.8,1.4,1.4,2.2,1.9h23.1c3.9,0,7.2-0.5,9.1-3l0.4-0.6
			c0,0,0-0.1,0.1-0.1l0-1.8h-35.2V491.3z"/>
		<g>
			<rect x="505.1" y="487.8" class="st26" width="76" height="2.6"/>
		</g>
		<g>
			<path class="st15" d="M600.8,486.8L581,412c-0.5-2-2.5-3.6-4.5-3.6H469.8c-2,0-3.1,1.6-2.6,3.6l19.7,74.8H600.8z"/>
			<path class="st26" d="M540.4,447.6c1,3.8-1.3,6.9-5.1,6.9c-3.8,0-7.7-3.1-8.7-6.9c-1-3.8,1.3-6.9,5.1-6.9
				C535.5,440.7,539.4,443.8,540.4,447.6z"/>
		</g>
	</g>
	<g>
		<polygon class="st1" points="160.8,751.9 145.3,751.9 171,503.1 193.5,503.1 		"/>
		<polygon class="st2" points="192,514.6 182.1,590 170.4,508.7 171,503.1 190.7,503.1 		"/>
		<polygon class="st1" points="667.1,751.9 651.5,751.9 677.2,503.1 699.8,503.1 		"/>
		<polygon class="st2" points="698.3,514.6 688.4,590 676.6,508.7 677.2,503.1 696.9,503.1 		"/>
		<polygon class="st1" points="830.6,751.9 846.1,751.9 820.4,503.1 797.9,503.1 		"/>
		<polygon class="st2" points="799.4,514.6 829.6,591.4 821,508.7 820.4,503.1 800.7,503.1 		"/>
		<rect x="363.9" y="495" class="st19" width="478.3" height="14.5"/>
		<radialGradient id="SVGID_1_" cx="176.5752" cy="292.207" r="471.8335" gradientUnits="userSpaceOnUse">
			<stop  offset="1.574020e-03" style="stop-color:#CDF7F1"/>
			<stop  offset="1" style="stop-color:#5DCFCA"/>
		</radialGradient>
		<rect x="152.4" y="495" class="st33" width="510.8" height="14.5"/>
	</g>
</g>
<path class="st13" d="M341.2,38.1l-0.1-6.2l-5.5-0.3c-0.4-2-1.2-3.9-2.3-5.6l3.6-4.4l-4.5-4.3l-4.1,3.6c-1.7-1.1-3.5-1.9-5.6-2.3
	l-0.6-5.6l-6.2,0.1l-0.3,5.5c-2,0.4-3.9,1.2-5.6,2.3l-4.4-3.6l-4.3,4.5l3.6,4.1c-1.1,1.7-1.9,3.5-2.3,5.5l-5.7,0.6l0.1,6.2l5.5,0.3
	c0.4,2,1.2,3.9,2.3,5.6l-3.6,4.4l4.5,4.3l4.1-3.6c1.7,1.1,3.5,1.9,5.6,2.3l0.6,5.7l6.2-0.1l0.3-5.5c2-0.4,3.9-1.2,5.6-2.3l4.4,3.6
	l4.3-4.5l-3.7-4.1c1.1-1.7,1.9-3.5,2.3-5.5L341.2,38.1z M319.2,43.3c-4.5,0.1-8.2-3.5-8.3-8c-0.1-4.5,3.5-8.2,8-8.3
	c4.5-0.1,8.2,3.5,8.3,8C327.3,39.4,323.7,43.2,319.2,43.3z"/>
<g>
	<ellipse class="st11" cx="839.5" cy="344.6" rx="68" ry="32.2"/>
	<path class="st34" d="M870,342.6c0,16.8-13.7,30.5-30.5,30.5c-16.8,0-30.5-13.7-30.5-30.5c0-16.8,13.7-30.5,30.5-30.5
		C856.3,312.1,870,325.8,870,342.6z"/>
	<path class="st35" d="M839.5,355.4c-7.1,0-12.8-5.7-12.8-12.8c0-7.1,5.7-12.8,12.8-12.8c7.1,0,12.8,5.7,12.8,12.8
		C852.2,349.7,846.5,355.4,839.5,355.4z"/>
</g>
<g>
	<rect x="887" y="254.8" class="st14" width="131.7" height="131.7"/>
	<rect x="900" y="267.8" class="st1" width="105.7" height="105.7"/>
	<path class="st14" d="M939.1,300.4c0,5.2-4.2,9.4-9.4,9.4c-5.2,0-9.4-4.2-9.4-9.4c0-5.2,4.2-9.4,9.4-9.4
		C934.9,291,939.1,295.2,939.1,300.4z"/>
	<g>
		<polygon class="st14" points="964.2,320 981,341.3 997.9,362.7 964.2,362.7 930.4,362.7 947.3,341.3 		"/>
		<polygon class="st14" points="932.5,332.7 944.3,347.7 956.2,362.7 932.5,362.7 908.8,362.7 920.6,347.7 		"/>
	</g>
</g>
<g>
	<g>
		
			<rect x="988.4" y="194.4" transform="matrix(0.7071 -0.7071 0.7071 0.7071 146.1354 760.144)" class="st13" width="4.6" height="18.4"/>
	</g>
	<g>
		<path class="st13" d="M965.4,235.9c-1.8,0-3.5-0.7-4.9-2c-2.7-2.7-2.7-7.1,0-9.8l24.5-24.5l3.3,3.3l-24.5,24.5
			c-0.9,0.9-0.9,2.4,0,3.3c0.9,0.9,2.4,0.9,3.3,0l24.5-24.5l3.3,3.3l-24.5,24.5C968.9,235.2,967.1,235.9,965.4,235.9z"/>
	</g>
	<g>
		
			<rect x="958.2" y="231.6" transform="matrix(0.7066 -0.7076 0.7076 0.7066 116.3253 748.2747)" class="st13" width="4.6" height="4.6"/>
	</g>
	<path class="st13" d="M987.4,197.1l6.5-6.5c1.8-1.8,4.7-1.8,6.5,0l3.3,3.3c1.8,1.8,1.8,4.7,0,6.5l-6.5,6.5"/>
</g>
<path class="st5" d="M254.7,12.9c-13.8,0-25,11.2-25,25c0,13.8,25,51.7,25,51.7s25-37.9,25-51.7C279.7,24.1,268.5,12.9,254.7,12.9z
	 M254.6,46.7c-4.1,0-7.4-3.3-7.4-7.4c0-4.1,3.3-7.4,7.4-7.4c4.1,0,7.4,3.3,7.4,7.4C262.1,43.4,258.7,46.7,254.6,46.7z"/>
<g>
	<path class="st13" d="M180.5,404.5v58.1c0,4.3,3.5,7.8,7.8,7.8h73.5c4.3,0,7.8-3.5,7.8-7.8v-17.4l3.9-3.9l7.8-7.8l-7.8-7.8
		l-3.9-3.9v-17.4c0-4.3-3.5-7.8-7.8-7.8h-73.5C184,396.7,180.5,400.2,180.5,404.5z"/>
</g>
<g>
	<g>
		<path class="st20" d="M922.1,708.7c0,0,6-21.3,15.3-28.6c9.4-7.2,16.2-17.5,28.6-22.2c12.4-4.7,15.3-13.2,10.7-16.2
			c-4.7-3-20-11.5-38.8,8.1c-18.8,19.6-23.4,35-23,53.3C915.3,721.5,921.3,719.4,922.1,708.7z"/>
		<path class="st36" d="M969.9,645.1c0,0-18.8,5.5-27.3,11.9c-8.5,6.4-24.3,24.3-25.2,41.8"/>
	</g>
	<g>
		<path class="st1" d="M917,715.6c0,0-9.7-27.3-13.6-35.8c-4-8.5-3.4-29,2.8-37c6.3-8,16.5-19.9,11.9-37.5
			c-4.5-17.6-2.3-28.4,6.3-21.6c8.5,6.8,23.5,21.9,23.9,46c0.3,18.5-5.2,29.3-15.3,42.6C924.7,683.2,916.5,703.1,917,715.6z"/>
		<path class="st37" d="M914,709c0,0-5.1-27.3,0-38.4c5.1-11.1,17.3-31.6,18.3-45.2c1.3-17.1-9.4-33.3-9.4-33.3"/>
	</g>
	<g>
		<path class="st3" d="M879.1,675.1c-11.1-2.1-11.9-14.9-3.4-17.5c8.5-2.6,22.6-2.1,29.4,6.8c7.9,10.4,11.1,29,8.5,42.2
			c-2.6,13.2,0-5.1-5.5-14.1C902.5,683.6,888.2,676.8,879.1,675.1z"/>
		<path class="st38" d="M874,664.7c0,0,15.3-3,26,7.2c9.2,8.9,13.2,19.9,14.9,31.3"/>
	</g>
	<polygon class="st13" points="935.4,741.4 904.7,741.4 899.5,692 940.5,692 	"/>
</g>
</svg>
